<svg width="104" height="25" viewBox="0 0 104 25" fill="none" xmlns="http://www.w3.org/2000/svg">
<g clip-path="url(#clip0_19045_84809)">
<g clip-path="url(#clip1_19045_84809)">
<path d="M18.692 1.5H25.6446C28.0481 1.5 30 3.47185 30 5.9H16.9337L18.692 1.5Z" fill="black"></path>
<path d="M15.1714 10.2999H4.35542C1.95188 10.2999 0 8.32805 0 5.8999H16.9337L15.1754 10.2999H15.1714Z" fill="black"></path>
<path d="M11.6548 19.1H7.9406C5.53705 19.1 3.58517 17.1281 3.58517 14.7H13.4131L11.6548 19.1Z" fill="black"></path>
<path d="M15.1714 10.3H22.1239C24.5275 10.3 26.4794 12.2719 26.4794 14.7H13.4131L15.1714 10.3Z" fill="black"></path>
<path d="M11.6548 19.1001H18.6073C21.0109 19.1001 22.9628 21.0719 22.9628 23.5001H9.89648L11.6548 19.1001Z" fill="black"></path>
</g>
<path d="M39.58 20.24C38.6333 20.24 37.7933 20.0267 37.06 19.6C36.3267 19.16 35.7533 18.56 35.34 17.8C34.9267 17.0267 34.72 16.1333 34.72 15.12C34.72 14.0933 34.92 13.1933 35.32 12.42C35.7333 11.6467 36.2933 11.04 37 10.6C37.72 10.16 38.5533 9.94 39.5 9.94C40.4333 9.94 41.24 10.14 41.92 10.54C42.6133 10.94 43.1467 11.5 43.52 12.22C43.9067 12.94 44.1 13.7867 44.1 14.76V15.46L35.72 15.48L35.76 14.22H42.22C42.22 13.4067 41.9733 12.7533 41.48 12.26C40.9867 11.7667 40.3267 11.52 39.5 11.52C38.8733 11.52 38.3333 11.66 37.88 11.94C37.44 12.2067 37.1 12.6067 36.86 13.14C36.6333 13.66 36.52 14.2867 36.52 15.02C36.52 16.1933 36.7867 17.1 37.32 17.74C37.8533 18.3667 38.62 18.68 39.62 18.68C40.3533 18.68 40.9533 18.5333 41.42 18.24C41.8867 17.9467 42.2 17.52 42.36 16.96H44.12C43.88 18 43.3667 18.8067 42.58 19.38C41.7933 19.9533 40.7933 20.24 39.58 20.24ZM48.9622 20.24C47.9222 20.24 47.1022 19.9667 46.5022 19.42C45.9155 18.8733 45.6222 18.16 45.6222 17.28C45.6222 16.3867 45.9422 15.6733 46.5822 15.14C47.2222 14.5933 48.1155 14.2733 49.2622 14.18L52.3422 13.94V13.66C52.3422 13.1133 52.2422 12.68 52.0422 12.36C51.8422 12.0267 51.5689 11.7933 51.2222 11.66C50.8755 11.5133 50.4822 11.44 50.0422 11.44C49.2555 11.44 48.6422 11.6067 48.2022 11.94C47.7755 12.26 47.5622 12.72 47.5622 13.32H45.9222C45.9222 12.64 46.0955 12.0467 46.4422 11.54C46.7889 11.0333 47.2755 10.64 47.9022 10.36C48.5422 10.08 49.2822 9.94 50.1222 9.94C50.9355 9.94 51.6422 10.0867 52.2422 10.38C52.8555 10.66 53.3289 11.0933 53.6622 11.68C54.0089 12.2533 54.1822 12.98 54.1822 13.86V20H52.5822L52.3822 18.42C52.1289 18.98 51.6889 19.4267 51.0622 19.76C50.4489 20.08 49.7489 20.24 48.9622 20.24ZM49.5022 18.78C50.3955 18.78 51.0955 18.5133 51.6022 17.98C52.1089 17.4333 52.3622 16.7 52.3622 15.78V15.26L49.8622 15.46C49.0355 15.54 48.4355 15.7333 48.0622 16.04C47.7022 16.3467 47.5222 16.74 47.5222 17.22C47.5222 17.74 47.6955 18.1333 48.0422 18.4C48.4022 18.6533 48.8889 18.78 49.5022 18.78ZM56.1658 14.86C56.1658 13.94 56.3524 13.1133 56.7258 12.38C57.0991 11.6333 57.6324 11.04 58.3258 10.6C59.0191 10.16 59.8391 9.94 60.7858 9.94C61.6658 9.94 62.4191 10.1533 63.0458 10.58C63.6724 10.9933 64.1191 11.5733 64.3858 12.32L64.1458 12.58L64.3458 10.22H66.0258V19.6C66.0258 20.6267 65.8258 21.5133 65.4258 22.26C65.0258 23.02 64.4591 23.6067 63.7258 24.02C62.9924 24.4333 62.1258 24.64 61.1258 24.64C59.7924 24.64 58.6991 24.2867 57.8458 23.58C56.9924 22.8733 56.4724 21.9 56.2858 20.66H58.1658C58.2858 21.38 58.6058 21.94 59.1258 22.34C59.6458 22.74 60.3124 22.94 61.1258 22.94C62.0458 22.94 62.7791 22.66 63.3258 22.1C63.8858 21.5533 64.1658 20.8133 64.1658 19.88V17.12L64.4058 17.38C64.1524 18.1133 63.6924 18.6933 63.0258 19.12C62.3591 19.5333 61.5858 19.74 60.7058 19.74C59.7724 19.74 58.9658 19.5267 58.2858 19.1C57.6058 18.66 57.0791 18.0733 56.7058 17.34C56.3458 16.6067 56.1658 15.78 56.1658 14.86ZM58.0458 14.82C58.0458 15.4333 58.1658 15.9867 58.4058 16.48C58.6591 16.9733 59.0058 17.3667 59.4458 17.66C59.8991 17.9533 60.4258 18.1 61.0258 18.1C61.6658 18.1 62.2124 17.96 62.6658 17.68C63.1191 17.4 63.4658 17.0133 63.7058 16.52C63.9591 16.0267 64.0858 15.46 64.0858 14.82C64.0858 14.18 63.9658 13.62 63.7258 13.14C63.4858 12.66 63.1391 12.28 62.6858 12C62.2324 11.72 61.6858 11.58 61.0458 11.58C60.4191 11.58 59.8791 11.7267 59.4258 12.02C58.9858 12.3133 58.6458 12.7067 58.4058 13.2C58.1658 13.68 58.0458 14.22 58.0458 14.82ZM70.6589 20H68.7789V5.28H70.6589V20ZM77.6464 20.24C76.6997 20.24 75.8597 20.0267 75.1264 19.6C74.3931 19.16 73.8197 18.56 73.4064 17.8C72.9931 17.0267 72.7864 16.1333 72.7864 15.12C72.7864 14.0933 72.9864 13.1933 73.3864 12.42C73.7997 11.6467 74.3597 11.04 75.0664 10.6C75.7864 10.16 76.6197 9.94 77.5664 9.94C78.4997 9.94 79.3064 10.14 79.9864 10.54C80.6797 10.94 81.2131 11.5 81.5864 12.22C81.9731 12.94 82.1664 13.7867 82.1664 14.76V15.46L73.7864 15.48L73.8264 14.22H80.2864C80.2864 13.4067 80.0397 12.7533 79.5464 12.26C79.0531 11.7667 78.3931 11.52 77.5664 11.52C76.9397 11.52 76.3997 11.66 75.9464 11.94C75.5064 12.2067 75.1664 12.6067 74.9264 13.14C74.6997 13.66 74.5864 14.2867 74.5864 15.02C74.5864 16.1933 74.8531 17.1 75.3864 17.74C75.9197 18.3667 76.6864 18.68 77.6864 18.68C78.4197 18.68 79.0197 18.5333 79.4864 18.24C79.9531 17.9467 80.2664 17.52 80.4264 16.96H82.1864C81.9464 18 81.4331 18.8067 80.6464 19.38C79.8597 19.9533 78.8597 20.24 77.6464 20.24ZM92.595 20.24C91.555 20.24 90.735 19.9667 90.135 19.42C89.5483 18.8733 89.255 18.16 89.255 17.28C89.255 16.3867 89.575 15.6733 90.215 15.14C90.855 14.5933 91.7483 14.2733 92.895 14.18L95.975 13.94V13.66C95.975 13.1133 95.875 12.68 95.675 12.36C95.475 12.0267 95.2017 11.7933 94.855 11.66C94.5083 11.5133 94.115 11.44 93.675 11.44C92.8883 11.44 92.275 11.6067 91.835 11.94C91.4083 12.26 91.195 12.72 91.195 13.32H89.555C89.555 12.64 89.7283 12.0467 90.075 11.54C90.4217 11.0333 90.9083 10.64 91.535 10.36C92.175 10.08 92.915 9.94 93.755 9.94C94.5683 9.94 95.275 10.0867 95.875 10.38C96.4883 10.66 96.9617 11.0933 97.295 11.68C97.6417 12.2533 97.815 12.98 97.815 13.86V20H96.215L96.015 18.42C95.7617 18.98 95.3217 19.4267 94.695 19.76C94.0817 20.08 93.3817 20.24 92.595 20.24ZM93.135 18.78C94.0283 18.78 94.7283 18.5133 95.235 17.98C95.7417 17.4333 95.995 16.7 95.995 15.78V15.26L93.495 15.46C92.6683 15.54 92.0683 15.7333 91.695 16.04C91.335 16.3467 91.155 16.74 91.155 17.22C91.155 17.74 91.3283 18.1333 91.675 18.4C92.035 18.6533 92.5217 18.78 93.135 18.78ZM100.419 20V10.22H102.299V20H100.419ZM101.339 7.9C101.005 7.9 100.712 7.78 100.459 7.54C100.219 7.28667 100.099 6.99333 100.099 6.66C100.099 6.31333 100.219 6.02 100.459 5.78C100.712 5.54 101.005 5.42 101.339 5.42C101.685 5.42 101.979 5.54 102.219 5.78C102.459 6.02 102.579 6.31333 102.579 6.66C102.579 6.99333 102.459 7.28667 102.219 7.54C101.979 7.78 101.685 7.9 101.339 7.9Z" fill="#141414"></path>
</g>
<defs>
<clipPath id="clip0_19045_84809">
<rect width="104" height="25" fill="white"></rect>
</clipPath>
<clipPath id="clip1_19045_84809">
<rect width="30" height="22" fill="white" transform="translate(0 1.5)"></rect>
</clipPath>
</defs>
</svg>